<svg width="34" height="34" viewBox="0 0 34 34" fill="none" xmlns="http://www.w3.org/2000/svg">
<path fill-rule="evenodd" clip-rule="evenodd" d="M24.7732 0.350233C27.1707 0.200388 29.535 1.03286 31.3165 2.66451C32.9481 4.446 33.7806 6.81022 33.6474 9.22439V24.775C33.7973 27.1891 32.9481 29.5534 31.3331 31.3348C29.5516 32.9665 27.1707 33.799 24.7732 33.6491H9.2225C6.80832 33.799 4.44408 32.9665 2.66257 31.3348C1.03091 29.5534 0.198434 27.1891 0.34828 24.775V9.22439C0.198434 6.81022 1.03091 4.446 2.66257 2.66451C4.44408 1.03286 6.80832 0.200388 9.2225 0.350233H24.7732ZM15.3003 25.0744L26.5054 13.8361C27.521 12.8038 27.521 11.1389 26.5054 10.1232L24.341 7.95881C23.3087 6.92655 21.6437 6.92655 20.6115 7.95881L19.4959 9.09097C19.3294 9.25747 19.3294 9.54051 19.4959 9.707C19.4959 9.707 22.1432 12.3376 22.1932 12.4042C22.3763 12.604 22.4929 12.8704 22.4929 13.1701C22.4929 13.7695 22.01 14.2689 21.394 14.2689C21.111 14.2689 20.8446 14.1524 20.6614 13.9693L17.8809 11.2055C17.7477 11.0723 17.5146 11.0723 17.3814 11.2055L9.4396 19.1472C8.89017 19.6967 8.57382 20.4292 8.55717 21.2118L8.45728 25.1577C8.45728 25.3741 8.52387 25.5739 8.67372 25.7238C8.82357 25.8736 9.02336 25.9569 9.23981 25.9569H13.1525C13.9516 25.9569 14.7175 25.6405 15.3003 25.0744Z" fill="#246BFD"/>
</svg>
