<svg width="21" height="24" viewBox="0 0 21 24" fill="none" xmlns="http://www.w3.org/2000/svg">
<path d="M15.2729 0.0120105C15.2219 -0.0449895 13.3844 0.0345106 11.7854 1.77001C10.1864 3.50401 10.4324 5.49301 10.4684 5.54401C10.5044 5.59501 12.7484 5.67451 14.1809 3.65701C15.6134 1.63951 15.3239 0.0705105 15.2729 0.0120105ZM20.2439 17.6115C20.1719 17.4675 16.7564 15.7605 17.0744 12.4785C17.3924 9.19501 19.5869 8.29501 19.6214 8.19751C19.6559 8.10001 18.7259 7.01251 17.7404 6.46201C17.0168 6.07389 16.216 5.85152 15.3959 5.81101C15.2339 5.80651 14.6714 5.66851 13.5149 5.98501C12.7529 6.19351 11.0354 6.86851 10.5629 6.89551C10.0889 6.92251 8.67889 6.11251 7.16239 5.89801C6.19189 5.71051 5.16289 6.09451 4.42639 6.39001C3.69139 6.68401 2.29339 7.52101 1.31539 9.74551C0.337389 11.9685 0.848889 15.4905 1.21489 16.5855C1.58089 17.679 2.15239 19.4715 3.12439 20.7795C3.98839 22.2555 5.13439 23.28 5.61289 23.628C6.09139 23.976 7.44139 24.207 8.37739 23.7285C9.13039 23.2665 10.4894 23.001 11.0264 23.0205C11.5619 23.04 12.6179 23.2515 13.6994 23.829C14.5559 24.1245 15.3659 24.0015 16.1774 23.6715C16.9889 23.34 18.1634 22.083 19.5344 19.5345C20.0549 18.3495 20.2919 17.709 20.2439 17.6115Z" fill="black"/>
</svg>
