<svg width="25" height="24" viewBox="0 0 25 24" fill="none" xmlns="http://www.w3.org/2000/svg">
<g clip-path="url(#clip0_1459_1955)">
<path d="M12.5 0C5.8724 0 0.5 5.3724 0.5 12C0.5 18.6276 5.8724 24 12.5 24C19.1276 24 24.5 18.6276 24.5 12C24.5 5.3724 19.1276 0 12.5 0Z" fill="url(#paint0_linear_1459_1955)"/>
<path d="M14.2281 16.8578H17.4846L17.9961 13.5496H14.2281V11.7414C14.2281 10.3673 14.6773 9.14861 15.9627 9.14861H18.0282V6.26199C17.6652 6.21292 16.8976 6.10596 15.4474 6.10596C12.4186 6.10596 10.6431 7.7053 10.6431 11.3494V13.5503H7.5293V16.8584H10.6424V25.9512C11.259 26.043 11.8838 26.106 12.5249 26.106C13.1044 26.106 13.67 26.0531 14.2281 25.9776V16.8578Z" fill="white"/>
</g>
<defs>
<linearGradient id="paint0_linear_1459_1955" x1="4.0958" y1="3.5958" x2="22.469" y2="21.969" gradientUnits="userSpaceOnUse">
<stop stop-color="#2AA4F4"/>
<stop offset="1" stop-color="#007AD9"/>
</linearGradient>
<clipPath id="clip0_1459_1955">
<rect width="24" height="24" fill="white" transform="translate(0.5)"/>
</clipPath>
</defs>
</svg>
