<svg width="280" height="274" viewBox="0 0 280 274" fill="none" xmlns="http://www.w3.org/2000/svg">
<g clip-path="url(#clip0_1331_23915)">
<path d="M177.755 61.4676H102.308C100.588 61.4697 98.9399 62.1537 97.7242 63.3694C96.5085 64.5851 95.8245 66.2334 95.8224 67.9528V235.636L94.9578 235.9L76.4492 241.568C75.572 241.836 74.6246 241.744 73.8148 241.314C73.0051 240.883 72.3992 240.149 72.1302 239.272L17.0757 59.44C16.8078 58.5628 16.8991 57.6151 17.3296 56.8052C17.7601 55.9953 18.4945 55.3895 19.3715 55.1209L47.8931 46.3876L130.578 21.0783L159.1 12.345C159.534 12.2114 159.99 12.1647 160.442 12.2076C160.894 12.2505 161.334 12.3822 161.735 12.595C162.136 12.8078 162.491 13.0977 162.78 13.448C163.069 13.7983 163.286 14.2021 163.419 14.6364L177.492 60.603L177.755 61.4676Z" fill="#F2F2F2"/>
<path d="M194.22 60.603L177.259 5.20271C176.977 4.27964 176.515 3.42122 175.901 2.6765C175.287 1.93178 174.532 1.31537 173.68 0.86247C172.828 0.409574 171.894 0.129073 170.933 0.0370065C169.973 -0.0550601 169.003 0.043112 168.08 0.325903L127.98 12.6001L45.2996 37.9137L5.19995 50.1922C3.33713 50.7642 1.77736 52.0519 0.863023 53.7728C-0.051319 55.4936 -0.245538 57.5069 0.323005 59.3708L58.2914 248.706C58.7532 250.211 59.6852 251.528 60.9504 252.464C62.2156 253.4 63.7475 253.906 65.3214 253.907C66.0498 253.908 66.7741 253.798 67.47 253.583L94.9583 245.17L95.823 244.902V243.998L94.9583 244.262L67.215 252.757C65.5707 253.258 63.7947 253.087 62.2767 252.281C60.7586 251.474 59.6224 250.098 59.1172 248.455L1.15328 59.1157C0.902991 58.3016 0.81576 57.4461 0.896575 56.5982C0.977391 55.7503 1.22466 54.9266 1.62424 54.1744C2.02382 53.4223 2.56786 52.7563 3.22519 52.2146C3.88252 51.673 4.64023 51.2663 5.45495 51.0179L45.5546 38.7395L128.236 13.4302L168.335 1.15168C168.953 0.963095 169.596 0.866938 170.242 0.866336C171.628 0.869449 172.978 1.31647 174.092 2.14193C175.206 2.96738 176.026 4.12789 176.433 5.45348L193.316 60.603L193.584 61.4677H194.483L194.22 60.603Z" fill="#BDBDBD"/>
<path d="M53.0404 55.2622C52.2072 55.2616 51.396 54.994 50.7259 54.4986C50.0559 54.0032 49.5622 53.3062 49.3174 52.5097L43.7487 34.3203C43.599 33.8317 43.5471 33.3184 43.5959 32.8097C43.6446 32.3011 43.7931 31.807 44.0328 31.3557C44.2726 30.9044 44.5989 30.5048 44.9931 30.1796C45.3873 29.8545 45.8417 29.6102 46.3303 29.4607L122.396 6.17311C123.383 5.872 124.449 5.9747 125.36 6.45866C126.271 6.94262 126.953 7.76831 127.256 8.7545L132.825 26.9441C133.125 27.9308 133.023 28.9967 132.539 29.9078C132.055 30.8188 131.229 31.5008 130.243 31.8039L54.1772 55.0915C53.8089 55.2045 53.4258 55.2621 53.0404 55.2622Z" fill="url(#paint0_linear_1331_23915)"/>
<path d="M82.2113 19.4358C86.9868 19.4358 90.8581 15.5644 90.8581 10.7889C90.8581 6.01342 86.9868 2.14211 82.2113 2.14211C77.4358 2.14211 73.5645 6.01342 73.5645 10.7889C73.5645 15.5644 77.4358 19.4358 82.2113 19.4358Z" fill="url(#paint1_linear_1331_23915)"/>
<path d="M82.2108 16.2644C85.2348 16.2644 87.6862 13.8129 87.6862 10.7889C87.6862 7.76493 85.2348 5.31349 82.2108 5.31349C79.1868 5.31349 76.7354 7.76493 76.7354 10.7889C76.7354 13.8129 79.1868 16.2644 82.2108 16.2644Z" fill="white"/>
<path d="M260.545 251.698H114.413C113.439 251.697 112.505 251.309 111.816 250.62C111.127 249.931 110.739 248.997 110.738 248.023V72.9247C110.739 71.9504 111.127 71.0163 111.816 70.3273C112.505 69.6384 113.439 69.2509 114.413 69.2498H260.545C261.519 69.2509 262.453 69.6384 263.142 70.3274C263.831 71.0163 264.218 71.9504 264.219 72.9247V248.023C264.218 248.997 263.831 249.931 263.142 250.62C262.453 251.309 261.519 251.697 260.545 251.698Z" fill="#E6E6E6"/>
<path d="M193.316 60.603H102.308C100.359 60.6057 98.4915 61.381 97.1138 62.7587C95.736 64.1365 94.9608 66.0043 94.958 67.9528V244.262L95.8227 243.998V67.9528C95.8248 66.2335 96.5087 64.5852 97.7244 63.3694C98.9402 62.1537 100.588 61.4697 102.308 61.4676H193.584L193.316 60.603ZM272.65 60.603H102.308C100.359 60.6057 98.4915 61.381 97.1138 62.7587C95.736 64.1365 94.9608 66.0043 94.958 67.9528V265.965C94.9608 267.914 95.736 269.781 97.1138 271.159C98.4915 272.537 100.359 273.312 102.308 273.315H272.65C274.599 273.312 276.467 272.537 277.844 271.159C279.222 269.781 279.997 267.914 280 265.965V67.9528C279.997 66.0043 279.222 64.1365 277.844 62.7587C276.467 61.381 274.599 60.6057 272.65 60.603ZM279.135 265.965C279.133 267.685 278.449 269.333 277.234 270.549C276.018 271.764 274.37 272.448 272.65 272.45H102.308C100.588 272.448 98.9402 271.764 97.7244 270.549C96.5087 269.333 95.8248 267.685 95.8227 265.965V67.9528C95.8248 66.2335 96.5087 64.5852 97.7244 63.3694C98.9402 62.1537 100.588 61.4697 102.308 61.4676H272.65C274.37 61.4697 276.018 62.1537 277.234 63.3694C278.449 64.5852 279.133 66.2335 279.135 67.9528V265.965Z" fill="#BDBDBD"/>
<path d="M227.254 79.626H147.704C146.672 79.6248 145.683 79.2145 144.953 78.485C144.224 77.7556 143.814 76.7665 143.812 75.7349V56.7119C143.814 55.6803 144.224 54.6912 144.953 53.9618C145.683 53.2323 146.672 52.822 147.704 52.8208H227.254C228.286 52.822 229.275 53.2323 230.005 53.9618C230.734 54.6912 231.144 55.6803 231.145 56.7119V75.7349C231.144 76.7665 230.734 77.7556 230.005 78.485C229.275 79.2145 228.286 79.6248 227.254 79.626Z" fill="url(#paint2_linear_1331_23915)"/>
<path d="M187.479 54.1178C192.254 54.1178 196.126 50.2465 196.126 45.471C196.126 40.6955 192.254 36.8242 187.479 36.8242C182.703 36.8242 178.832 40.6955 178.832 45.471C178.832 50.2465 182.703 54.1178 187.479 54.1178Z" fill="url(#paint3_linear_1331_23915)"/>
<path d="M187.479 50.7377C190.387 50.7377 192.745 48.3797 192.745 45.471C192.745 42.5623 190.387 40.2043 187.479 40.2043C184.57 40.2043 182.212 42.5623 182.212 45.471C182.212 48.3797 184.57 50.7377 187.479 50.7377Z" fill="white"/>
</g>
<defs>
<linearGradient id="paint0_linear_1331_23915" x1="132.994" y1="55.2622" x2="42.6721" y2="7.72501" gradientUnits="userSpaceOnUse">
<stop stop-color="#246BFD"/>
<stop offset="1" stop-color="#5089FF"/>
</linearGradient>
<linearGradient id="paint1_linear_1331_23915" x1="90.8581" y1="19.4358" x2="70.2802" y2="13.4694" gradientUnits="userSpaceOnUse">
<stop stop-color="#246BFD"/>
<stop offset="1" stop-color="#5089FF"/>
</linearGradient>
<linearGradient id="paint2_linear_1331_23915" x1="231.145" y1="79.626" x2="171.614" y2="23.39" gradientUnits="userSpaceOnUse">
<stop stop-color="#246BFD"/>
<stop offset="1" stop-color="#5089FF"/>
</linearGradient>
<linearGradient id="paint3_linear_1331_23915" x1="196.126" y1="54.1178" x2="175.548" y2="48.1515" gradientUnits="userSpaceOnUse">
<stop stop-color="#246BFD"/>
<stop offset="1" stop-color="#5089FF"/>
</linearGradient>
<clipPath id="clip0_1331_23915">
<rect width="280" height="273.315" fill="white"/>
</clipPath>
</defs>
</svg>
