<svg width="276" height="250" viewBox="0 0 276 250" fill="none" xmlns="http://www.w3.org/2000/svg">
<g clip-path="url(#clip0_1329_23321)">
<path d="M190.727 249.37H112.413C100.667 249.37 91.1104 239.824 91.1104 228.09V21.2801C91.1104 9.54629 100.667 0 112.413 0H190.727C202.473 0 212.029 9.54629 212.029 21.2801C213.487 104.329 215.973 197.33 212.029 228.09C212.029 239.824 202.473 249.37 190.727 249.37L190.727 249.37Z" fill="#3F3D56"/>
<path d="M213.121 76.0715C212.624 76.0715 212.22 76.4753 212.22 76.9718V105.78C212.22 106.276 212.624 106.68 213.121 106.68C213.618 106.68 214.022 106.276 214.022 105.78V76.9718C214.022 76.4753 213.618 76.0715 213.121 76.0715Z" fill="#3F3D56"/>
<path d="M210.002 21.2803V228.087C210.002 238.3 202.044 246.654 191.982 247.302H191.978C191.829 247.311 191.681 247.32 191.527 247.325C191.261 247.338 190.996 247.343 190.725 247.343C190.725 247.343 189.734 247.271 187.923 247.136C186.093 247.001 183.43 246.798 180.109 246.533C179.113 246.456 178.063 246.371 176.955 246.281C174.747 246.101 172.323 245.903 169.723 245.677C168.687 245.592 167.614 245.497 166.519 245.403C160.923 244.921 154.655 244.359 148.045 243.719C146.927 243.616 145.801 243.508 144.665 243.395C144.368 243.364 93.1387 230.499 93.1387 228.087V21.2803C93.1387 10.6439 101.768 2.02393 112.415 2.02393H123.923C125.762 2.02393 127.24 3.45532 127.398 5.28735C127.411 5.40889 127.425 5.5304 127.447 5.65195C127.781 7.49298 129.47 8.77583 131.345 8.77583H171.796C173.67 8.77583 175.36 7.49298 175.693 5.65195C175.716 5.53041 175.729 5.40889 175.743 5.28735C175.901 3.45533 177.379 2.02393 179.217 2.02393H190.725C201.373 2.02393 210.002 10.6439 210.002 21.2803H210.002Z" fill="white"/>
<path d="M90.66 54.4653C90.163 54.4653 89.7588 54.8691 89.7588 55.3656V62.5676C89.7588 63.0641 90.163 63.4679 90.66 63.4679C91.157 63.4679 91.5612 63.0641 91.5612 62.5676V55.3656C91.5612 54.8691 91.157 54.4653 90.66 54.4653Z" fill="#3F3D56"/>
<path d="M90.66 76.0714C90.163 76.0714 89.7588 76.4752 89.7588 76.9717V90.9256C89.7588 91.4221 90.163 91.8258 90.66 91.8258C91.157 91.8258 91.5612 91.4221 91.5612 90.9256V76.9717C91.5612 76.4752 91.157 76.0714 90.66 76.0714V76.0714Z" fill="#3F3D56"/>
<path d="M90.66 95.8771C90.163 95.8771 89.7588 96.2808 89.7588 96.7773V110.731C89.7588 111.228 90.163 111.632 90.66 111.632C91.157 111.632 91.5612 111.228 91.5612 110.731V96.7773C91.5612 96.2808 91.157 95.8771 90.66 95.8771Z" fill="#3F3D56"/>
<path d="M123.628 5.17651H106.358C106.274 5.17651 106.206 5.24429 106.206 5.3279V7.27576C106.206 7.35937 106.274 7.42715 106.358 7.42715H123.628C123.711 7.42715 123.779 7.35937 123.779 7.27576V5.3279C123.779 5.24429 123.711 5.17651 123.628 5.17651Z" fill="#E6E6E6"/>
<path d="M182.064 7.42718C183.06 7.42718 183.866 6.62107 183.866 5.62668C183.866 4.63229 183.06 3.82617 182.064 3.82617C181.069 3.82617 180.262 4.63229 180.262 5.62668C180.262 6.62107 181.069 7.42718 182.064 7.42718Z" fill="#E6E6E6"/>
<path d="M187.021 7.42718C188.017 7.42718 188.824 6.62107 188.824 5.62668C188.824 4.63229 188.017 3.82617 187.021 3.82617C186.026 3.82617 185.219 4.63229 185.219 5.62668C185.219 6.62107 186.026 7.42718 187.021 7.42718Z" fill="#E6E6E6"/>
<path d="M191.977 7.42718C192.973 7.42718 193.78 6.62107 193.78 5.62668C193.78 4.63229 192.973 3.82617 191.977 3.82617C190.982 3.82617 190.175 4.63229 190.175 5.62668C190.175 6.62107 190.982 7.42718 191.977 7.42718Z" fill="#E6E6E6"/>
<path d="M6.99219 249.419C6.99219 249.741 7.25111 250 7.57354 250H275.418C275.741 250 276 249.741 276 249.419C276 249.097 275.741 248.839 275.418 248.839H7.57354C7.25111 248.839 6.99219 249.097 6.99219 249.419Z" fill="#CCCCCC"/>
<path d="M92.3937 245.605L86.901 245.605L84.2881 224.44L92.3948 224.441L92.3937 245.605Z" fill="#FFB6B6"/>
<path d="M73.5747 245.481C73.4037 245.768 73.3135 246.697 73.3135 247.032C73.3135 248.06 74.1481 248.894 75.1777 248.894H92.1879C92.8902 248.894 93.4597 248.325 93.4597 247.623V246.916C93.4597 246.916 94.3011 244.79 92.5687 242.169C92.5687 242.169 90.4155 244.221 87.198 241.007L86.2492 239.29L79.3813 244.308L75.5745 244.776C74.7416 244.878 74.0032 244.76 73.5748 245.481H73.5747V245.481H73.5747Z" fill="#2F2E41"/>
<path d="M62.0178 216.209L56.5251 216.191L53.9795 195.019L62.0861 195.045L62.0178 216.209Z" fill="#FFB6B6"/>
<path d="M43.1998 216.025C43.0279 216.312 42.9347 217.24 42.9336 217.575C42.9303 218.604 43.7623 219.44 44.7919 219.443L61.802 219.497C62.5043 219.499 63.0756 218.932 63.0778 218.231L63.0801 217.523C63.0801 217.523 63.9283 215.4 62.2042 212.774C62.2042 212.774 60.0445 214.819 56.8372 211.595L55.8939 209.875L49.01 214.87L45.2017 215.326C44.3686 215.426 43.6306 215.306 43.1999 216.025H43.1998V216.025Z" fill="#2F2E41"/>
<path d="M84.3825 117.12L77.5433 117.608C77.5433 117.608 54.3902 130.758 52.4362 133.686C50.4821 136.614 47.7953 140.762 50.2379 145.154C52.6804 149.546 50.8214 202.725 50.8214 202.725L62.4933 200.087L69.9715 144.448L85.6038 142.252C85.6038 142.252 90.9774 153.833 89.0233 163.414C87.0693 172.996 86.0923 178.852 86.0923 178.852L83.6497 235.459L93.1756 235.215L101.725 182.756L116.38 141.276L97.328 118.828L84.3825 117.12Z" fill="#2F2E41"/>
<path d="M52.8471 112.412C50.0658 113.929 48.5943 116.591 49.5602 118.359C50.5261 120.127 53.5638 120.331 56.3451 118.815C57.5626 118.151 58.529 117.268 59.15 116.336L70.8543 109.763L67.6496 104.342L56.4516 111.397C55.3311 111.415 54.0646 111.749 52.8471 112.412H52.8471Z" fill="#FFB6B6"/>
<path d="M118.09 57.0958L103.923 58.5598L102.457 63.4398L88.779 70.7598L93.1756 101.504L89.756 106.872L91.2215 112.24C91.2215 112.24 87.3134 112.728 87.802 115.656L79.0088 117.12C79.0088 117.12 90.6715 119.498 93.1448 131.241C95.6181 142.984 116.135 144.448 116.135 144.448L132.256 94.1837L133.722 64.4158L122.486 61.4878L118.09 57.0958Z" fill="#E6E6E6"/>
<path d="M92.3178 70.9876C92.3178 70.9876 87.7297 69.2425 86.1489 71.3431C84.5681 73.4437 74.1253 98.9321 74.1253 98.9321L58.8037 106.926L63.1123 114.421L82.8418 107.859L95.859 84.077L92.3178 70.9876Z" fill="#E6E6E6"/>
<path d="M237 154.695V206.423C237 210.997 233.275 214.719 228.695 214.719H100.706C96.1267 214.719 92.4014 210.997 92.4014 206.423V154.695C92.4014 150.12 96.1267 146.399 100.706 146.399H228.695C233.275 146.399 237 150.12 237 154.695Z" fill="white"/>
<path d="M237 154.695V206.423C237 210.997 233.275 214.719 228.695 214.719H100.706C96.1267 214.719 92.4014 210.997 92.4014 206.423V154.695C92.4014 150.12 96.1267 146.399 100.706 146.399H228.695C233.275 146.399 237 150.12 237 154.695ZM228.695 213.743C232.742 213.743 236.023 210.465 236.023 206.423V180.343C236.023 162.135 221.247 147.375 203.02 147.375H100.706C96.6591 147.375 93.3784 150.652 93.3784 154.695V206.423C93.3784 210.465 96.6591 213.743 100.706 213.743H228.695Z" fill="#3F3D56"/>
<path d="M149.855 177.651H133.138C132.717 177.651 132.374 177.993 132.374 178.414C132.374 178.835 132.717 179.178 133.138 179.178H149.855C150.277 179.178 150.62 178.835 150.62 178.414C150.62 177.993 150.277 177.651 149.855 177.651Z" fill="#246BFD"/>
<path d="M175.258 177.651H158.541C158.119 177.651 157.776 177.993 157.776 178.414C157.776 178.835 158.119 179.178 158.541 179.178H175.258C175.679 179.178 176.022 178.835 176.022 178.414C176.022 177.993 175.679 177.651 175.258 177.651Z" fill="#246BFD"/>
<path d="M149.855 185.999H133.138C132.717 185.999 132.374 186.341 132.374 186.762C132.374 187.183 132.717 187.526 133.138 187.526H149.855C150.277 187.526 150.62 187.183 150.62 186.762C150.62 186.341 150.277 185.999 149.855 185.999Z" fill="#246BFD"/>
<path d="M175.258 185.999H158.541C158.119 185.999 157.776 186.341 157.776 186.762C157.776 187.183 158.119 187.526 158.541 187.526H175.258C175.679 187.526 176.022 187.183 176.022 186.762C176.022 186.341 175.679 185.999 175.258 185.999Z" fill="#246BFD"/>
<path d="M201.424 186.762C201.424 186.341 201.082 185.999 200.66 185.999H183.943C183.522 185.999 183.179 186.341 183.179 186.762C183.179 187.183 183.522 187.526 183.943 187.526H200.66C201.082 187.526 201.424 187.183 201.424 186.762Z" fill="#246BFD"/>
<path d="M140.085 170.985C140.506 170.985 140.849 170.643 140.849 170.222C140.849 169.801 140.506 169.458 140.085 169.458H123.368C122.946 169.458 122.604 169.801 122.604 170.222C122.604 170.643 122.946 170.985 123.368 170.985H140.085Z" fill="#246BFD"/>
<path d="M189.316 170.675H206.033C206.455 170.675 206.797 170.332 206.797 169.911C206.797 169.49 206.455 169.148 206.033 169.148H189.316C188.895 169.148 188.552 169.49 188.552 169.911C188.552 170.332 188.895 170.675 189.316 170.675Z" fill="#246BFD"/>
<path d="M147.128 170.835H181.786C182.207 170.835 182.55 170.493 182.55 170.072C182.55 169.651 182.207 169.308 181.786 169.308H147.128C146.706 169.308 146.363 169.651 146.363 170.072C146.363 170.493 146.706 170.835 147.128 170.835Z" fill="#246BFD"/>
<path d="M160.764 193.583H144.047C143.625 193.583 143.282 193.925 143.282 194.346C143.282 194.767 143.625 195.11 144.047 195.11H160.764C161.185 195.11 161.528 194.767 161.528 194.346C161.528 193.925 161.185 193.583 160.764 193.583Z" fill="#246BFD"/>
<path d="M214.755 154.305V206.033C214.755 210.607 211.029 214.329 206.45 214.329H154.668C150.089 214.329 146.363 210.607 146.363 206.033V154.305C146.363 149.73 150.089 146.009 154.668 146.009H206.45C211.029 146.009 214.755 149.73 214.755 154.305Z" fill="white"/>
<path d="M214.755 154.305V206.033C214.755 210.607 211.029 214.329 206.45 214.329H154.668C150.089 214.329 146.363 210.607 146.363 206.033V154.305C146.363 149.73 150.089 146.009 154.668 146.009H206.45C211.029 146.009 214.755 149.73 214.755 154.305ZM203.238 213.353C209.059 213.353 213.778 208.639 213.778 202.824V179.953C213.778 161.745 199.002 146.985 180.774 146.985H154.668C150.621 146.985 147.34 150.262 147.34 154.305V198.815C147.34 206.844 153.856 213.353 161.893 213.353H203.238V213.353H203.238Z" fill="#3F3D56"/>
<path d="M187.452 167.135H170.735C170.314 167.135 169.971 166.793 169.971 166.372C169.971 165.951 170.314 165.608 170.735 165.608H187.452C187.874 165.608 188.216 165.951 188.216 166.372C188.216 166.793 187.874 167.135 187.452 167.135V167.135Z" fill="#246BFD"/>
<path d="M187.452 183.417H170.735C170.314 183.417 169.971 183.074 169.971 182.653C169.971 182.232 170.314 181.89 170.735 181.89H187.452C187.874 181.89 188.216 182.232 188.216 182.653C188.216 183.074 187.874 183.417 187.452 183.417V183.417Z" fill="#246BFD"/>
<path d="M179.147 205.865H162.43C162.009 205.865 161.666 205.522 161.666 205.101C161.666 204.68 162.009 204.338 162.43 204.338H179.147C179.569 204.338 179.912 204.68 179.912 205.101C179.912 205.522 179.569 205.865 179.147 205.865V205.865Z" fill="#246BFD"/>
<path d="M196.423 175.281H161.764C161.343 175.281 161 174.939 161 174.518C161 174.097 161.343 173.754 161.764 173.754H196.423C196.844 173.754 197.187 174.097 197.187 174.518C197.187 174.939 196.844 175.281 196.423 175.281V175.281Z" fill="#246BFD"/>
<path d="M205.012 125.641C205.012 109.504 191.359 100.627 175.763 96.4229C155.768 91.0324 141.124 101.94 146.514 125.641C147.736 131.013 150.658 137.286 154.275 142.653H182.977C192.564 136.417 205.012 138.166 205.012 125.641H205.012Z" fill="#246BFD"/>
<path d="M175.333 156.146C176.966 153.037 179.036 150.793 181.316 149.086H154.434C161.353 158.959 170.528 165.296 175.333 156.146Z" fill="#246BFD"/>
<path d="M172.231 108.366C173.957 108.366 175.356 109.764 175.356 111.488V117.731H169.106V111.488C169.106 109.764 170.505 108.366 172.231 108.366ZM176.919 117.731V111.488C176.919 108.902 174.82 106.805 172.231 106.805C169.642 106.805 167.544 108.902 167.544 111.488V117.731C165.818 117.731 164.419 119.129 164.419 120.853V128.657C164.419 130.381 165.818 131.778 167.544 131.778H176.919C178.644 131.778 180.043 130.381 180.043 128.657V120.853C180.043 119.129 178.644 117.731 176.919 117.731H176.919ZM167.544 119.292H176.919C177.781 119.292 178.481 119.991 178.481 120.853V128.657C178.481 129.519 177.781 130.218 176.919 130.218H167.544C166.681 130.218 165.981 129.519 165.981 128.657V120.853C165.981 119.991 166.681 119.292 167.544 119.292Z" fill="white"/>
<path d="M127.574 144.713C127.197 147.856 128.515 150.597 130.517 150.837C132.519 151.076 134.447 148.723 134.824 145.58C134.989 144.204 134.829 142.906 134.429 141.86L135.859 128.523L129.579 127.986L128.837 141.191C128.201 142.113 127.739 143.337 127.574 144.713Z" fill="#FFB6B6"/>
<path d="M28.5778 158.765C44.3608 158.765 57.1556 145.984 57.1556 130.217C57.1556 114.451 44.3608 101.67 28.5778 101.67C12.7947 101.67 0 114.451 0 130.217C0 145.984 12.7947 158.765 28.5778 158.765Z" fill="#246BFD"/>
<path d="M28.5777 117.437C30.5965 117.437 32.233 119.072 32.233 121.089V128.392H24.9224V121.089C24.9224 119.072 26.5589 117.437 28.5777 117.437ZM34.0607 128.392V121.089C34.0607 118.064 31.6059 115.612 28.5777 115.612C25.5496 115.612 23.0948 118.064 23.0948 121.089V128.392C21.076 128.392 19.4395 130.027 19.4395 132.043V141.172C19.4395 143.189 21.076 144.823 23.0948 144.823H34.0606C36.0794 144.823 37.7159 143.189 37.7159 141.172V132.043C37.7159 130.027 36.0794 128.392 34.0606 128.392H34.0607ZM23.0948 130.217H34.0606C35.07 130.217 35.8883 131.035 35.8883 132.043V141.172C35.8883 142.18 35.07 142.998 34.0606 142.998H23.0948C22.0854 142.998 21.2671 142.18 21.2671 141.172V132.043C21.2671 131.035 22.0854 130.217 23.0948 130.217Z" fill="white"/>
<path d="M129.081 65.1479C129.081 65.1479 135.92 63.1959 137.386 66.1239C138.851 69.0519 142.271 107.604 142.271 107.604L135.676 138.377L128.104 136.396L132.012 105.164L126.639 81.7398L129.081 65.1479Z" fill="#E6E6E6"/>
<path d="M110.623 55.2441C116.706 55.2441 121.636 50.3186 121.636 44.2427C121.636 38.1667 116.706 33.2412 110.623 33.2412C104.541 33.2412 99.6104 38.1667 99.6104 44.2427C99.6104 50.3186 104.541 55.2441 110.623 55.2441Z" fill="#FFB6B6"/>
<path d="M104.9 54.1679C104.9 54.1679 95.1299 53.6799 96.107 45.8719C93.6887 37.5573 95.8292 32.1587 103.435 30.2559C103.435 30.2559 105.389 29.7679 105.877 29.7679C112.302 29.7679 115.647 31.7199 115.647 31.7199C115.647 31.7199 115.159 29.7872 115.647 30.2656C116.136 30.7439 116.624 31.7199 116.624 31.7199C116.624 31.7199 121.509 34.1599 121.509 39.0399C121.509 43.9199 121.509 41.9679 121.509 41.9679C121.509 41.9679 120.532 41.9679 119.555 39.0399C118.578 36.1119 112.253 38.0639 112.253 38.0639L112.716 39.0399L111.251 38.5519L109.785 40.0159L108.808 39.5279C108.808 39.5279 104.9 39.5279 105.389 39.5279C105.877 39.5279 105.537 42.8443 105.537 42.8443L101.969 46.8479L105.877 54.1679H104.9Z" fill="#2F2E41"/>
</g>
<defs>
<clipPath id="clip0_1329_23321">
<rect width="276" height="250" fill="white"/>
</clipPath>
</defs>
</svg>
