<svg width="212" height="60" viewBox="0 0 212 60" fill="none" xmlns="http://www.w3.org/2000/svg">
<rect width="60" height="60" rx="30" fill="url(#paint0_linear_1228_19914)"/>
<path fill-rule="evenodd" clip-rule="evenodd" d="M38.9067 44.4737H21.0933C18.2804 44.4737 16 42.2099 16 39.4174V26.5933C16.0259 25.4936 16.5493 24.4639 17.4251 23.79L27.0311 16.1008C28.6901 14.6736 31.1401 14.6295 32.8501 15.996L42.6805 23.79C43.5167 24.4844 44 25.511 44 26.5933V39.4305C44 40.7703 43.463 42.055 42.5074 43.0012C41.5518 43.9473 40.2563 44.4771 38.9067 44.4737ZM30.2148 33.3241L30.1682 33.3235L30.1189 33.3241C29.689 33.324 29.2759 33.1565 28.9673 32.8572C28.6586 32.5579 28.4786 32.1502 28.4652 31.7204V31.7177C28.4793 31.2884 28.6596 30.8814 28.9682 30.5827C29.2768 30.2839 29.6894 30.1169 30.1189 30.1167L30.1656 30.1174L30.2148 30.1167C30.6448 30.1169 31.0578 30.2843 31.3665 30.5837C31.6751 30.883 31.8552 31.2907 31.8685 31.7204V31.7231C31.8545 32.1524 31.6741 32.5594 31.3656 32.8582C31.057 33.1569 30.6444 33.324 30.2148 33.3241ZM27.2147 28.836C28.0117 28.0866 29.0733 27.6836 30.1669 27.7152L30.1684 27.7158C31.2621 27.6844 32.3238 28.0876 33.1209 28.8373C33.9194 29.5883 34.3871 30.6255 34.4213 31.7211C34.4197 32.2401 34.3135 32.7541 34.1093 33.2312C33.905 33.7083 33.6068 34.1394 33.2324 34.4988L33.2263 34.4887C32.9974 34.1425 32.6921 33.8534 32.334 33.6436C32.5896 33.3928 32.7934 33.093 32.9325 32.7629C33.0715 32.4329 33.1436 32.0785 33.1446 31.7204V31.7157C33.12 30.9644 32.8043 30.252 32.2641 29.7293C31.724 29.2065 31.0017 28.9142 30.25 28.9143L30.1675 28.9156L30.0811 28.9143C29.3286 28.9148 28.6059 29.208 28.0656 29.7318C27.5254 30.2556 27.2102 30.969 27.1865 31.7211C27.1875 32.0784 27.2593 32.4326 27.3979 32.7619C27.5365 33.0912 27.739 33.3897 27.9937 33.6403L27.9816 33.647C27.6264 33.8578 27.3241 34.1471 27.098 34.4928L27.0966 34.4914C26.7239 34.1324 26.4272 33.702 26.2241 33.226C26.021 32.75 25.9157 32.238 25.9145 31.7204V31.7137C25.9501 30.6202 26.4177 29.5854 27.2147 28.836ZM30.1675 28.9156L30.1655 28.9157H30.1696L30.1675 28.9156ZM23.3684 31.7204C23.3684 28.1841 26.4117 25.3165 30.1669 25.3171L30.1662 25.3158C33.9208 25.3158 36.9647 28.1827 36.9647 31.7197V31.7231C36.939 34.058 35.6486 36.0896 33.7152 37.1821C33.757 36.8878 33.7783 36.591 33.7789 36.2937V36.2903C33.7742 36.087 33.7512 35.8891 33.7141 35.7175L33.7255 35.7087C34.3354 35.237 34.8298 34.6327 35.1715 33.9416C35.5131 33.2505 35.693 32.4907 35.6974 31.7197C35.6974 28.8427 33.2209 26.5101 30.1662 26.5101C27.1115 26.5101 24.635 28.8427 24.635 31.7197V31.7218C24.64 32.4931 24.8206 33.2532 25.1629 33.9445C25.5051 34.6354 26 35.2394 26.6101 35.7108C26.5722 35.899 26.5507 36.0929 26.5474 36.2944C26.5474 36.5898 26.5686 36.8856 26.6109 37.178L26.5799 37.1618C25.6148 36.6157 24.8101 35.8255 24.2465 34.8706C23.6828 33.9156 23.38 32.8293 23.3684 31.7204ZM26.6101 35.7108C26.6104 35.711 26.6099 35.7106 26.6101 35.7108L26.6143 35.6905C26.6129 35.6972 26.6115 35.704 26.6101 35.7108ZM33.7152 37.1821C33.7148 37.1823 33.7156 37.1818 33.7152 37.1821L33.71 37.2178C33.7118 37.2059 33.7135 37.194 33.7152 37.1821ZM30.1007 34.1246L30.1669 34.1253L30.1655 34.1246H30.1622C30.7652 34.1064 31.3508 34.3283 31.7903 34.7416C32.2299 35.1549 32.4873 35.7258 32.5062 36.3288C32.5062 37.5434 31.4571 41.5263 30.1662 41.5263C28.8753 41.5263 27.8262 37.5461 27.8262 36.3288V36.3255C27.8458 35.7353 28.094 35.1758 28.5184 34.7651C28.9428 34.3545 29.5101 34.1248 30.1007 34.1246Z" fill="white"/>
<path d="M79.048 47V13.4H91.936C93.76 13.4 95.408 13.856 96.88 14.768C98.352 15.68 99.52 16.904 100.384 18.44C101.248 19.96 101.68 21.648 101.68 23.504C101.68 25.024 101.4 26.424 100.84 27.704C100.296 28.968 99.528 30.064 98.536 30.992C97.56 31.92 96.432 32.624 95.152 33.104L103.192 47H96.448L88.672 33.632H84.904V47H79.048ZM84.904 27.776H91.264C92.096 27.776 92.856 27.568 93.544 27.152C94.232 26.736 94.784 26.176 95.2 25.472C95.616 24.768 95.824 23.984 95.824 23.12C95.824 22.24 95.616 21.448 95.2 20.744C94.784 20.04 94.232 19.48 93.544 19.064C92.856 18.648 92.096 18.44 91.264 18.44H84.904V27.776ZM117.237 47.624C115.029 47.624 113.013 47.056 111.189 45.92C109.381 44.784 107.933 43.256 106.845 41.336C105.773 39.416 105.237 37.296 105.237 34.976C105.237 33.232 105.549 31.6 106.173 30.08C106.797 28.544 107.653 27.2 108.741 26.048C109.845 24.88 111.125 23.968 112.581 23.312C114.037 22.656 115.589 22.328 117.237 22.328C119.109 22.328 120.821 22.728 122.373 23.528C123.941 24.312 125.269 25.392 126.357 26.768C127.445 28.144 128.237 29.712 128.733 31.472C129.229 33.232 129.341 35.072 129.069 36.992H111.525C111.749 37.888 112.117 38.696 112.629 39.416C113.141 40.12 113.789 40.688 114.573 41.12C115.357 41.536 116.245 41.752 117.237 41.768C118.261 41.784 119.189 41.544 120.021 41.048C120.869 40.536 121.573 39.848 122.133 38.984L128.109 40.376C127.133 42.504 125.677 44.248 123.741 45.608C121.805 46.952 119.637 47.624 117.237 47.624ZM111.333 32.6H123.141C122.965 31.64 122.589 30.776 122.013 30.008C121.453 29.224 120.757 28.6 119.925 28.136C119.093 27.672 118.197 27.44 117.237 27.44C116.277 27.44 115.389 27.672 114.573 28.136C113.757 28.584 113.061 29.2 112.485 29.984C111.925 30.752 111.541 31.624 111.333 32.6ZM151.452 23H157.307V47H151.428L151.188 44.024C150.516 45.096 149.636 45.968 148.548 46.64C147.476 47.296 146.212 47.624 144.756 47.624C142.98 47.624 141.316 47.288 139.764 46.616C138.212 45.944 136.844 45.016 135.66 43.832C134.476 42.648 133.556 41.28 132.9 39.728C132.244 38.176 131.916 36.512 131.916 34.736C131.916 33.024 132.228 31.416 132.852 29.912C133.476 28.408 134.356 27.088 135.492 25.952C136.628 24.816 137.94 23.928 139.428 23.288C140.916 22.648 142.516 22.328 144.228 22.328C145.828 22.328 147.252 22.68 148.5 23.384C149.764 24.088 150.836 24.984 151.716 26.072L151.452 23ZM144.924 41.984C146.204 41.984 147.316 41.656 148.26 41C149.204 40.344 149.916 39.472 150.396 38.384C150.892 37.28 151.092 36.064 150.996 34.736C150.884 33.488 150.516 32.36 149.892 31.352C149.268 30.328 148.468 29.512 147.492 28.904C146.516 28.296 145.42 27.992 144.204 27.992C142.94 27.992 141.804 28.32 140.796 28.976C139.804 29.632 139.036 30.512 138.492 31.616C137.948 32.704 137.732 33.92 137.844 35.264C137.972 36.496 138.372 37.624 139.044 38.648C139.716 39.656 140.564 40.464 141.588 41.072C142.628 41.68 143.74 41.984 144.924 41.984ZM170.388 47.432C169.14 47.352 167.932 47.104 166.764 46.688C165.612 46.256 164.588 45.672 163.692 44.936C162.796 44.2 162.108 43.32 161.628 42.296L166.572 40.184C166.764 40.504 167.076 40.848 167.508 41.216C167.94 41.568 168.452 41.864 169.044 42.104C169.652 42.344 170.316 42.464 171.036 42.464C171.644 42.464 172.22 42.384 172.764 42.224C173.324 42.048 173.772 41.784 174.108 41.432C174.46 41.08 174.636 40.624 174.636 40.064C174.636 39.472 174.428 39.016 174.012 38.696C173.612 38.36 173.1 38.112 172.476 37.952C171.868 37.776 171.276 37.616 170.7 37.472C169.18 37.168 167.764 36.696 166.452 36.056C165.156 35.416 164.108 34.592 163.308 33.584C162.524 32.56 162.132 31.328 162.132 29.888C162.132 28.304 162.548 26.936 163.38 25.784C164.212 24.632 165.308 23.744 166.668 23.12C168.028 22.496 169.492 22.184 171.06 22.184C172.964 22.184 174.708 22.584 176.292 23.384C177.892 24.168 179.156 25.28 180.084 26.72L175.452 29.456C175.228 29.072 174.916 28.72 174.516 28.4C174.116 28.064 173.66 27.792 173.148 27.584C172.636 27.36 172.1 27.232 171.54 27.2C170.82 27.168 170.164 27.232 169.572 27.392C168.98 27.552 168.5 27.824 168.132 28.208C167.78 28.592 167.604 29.104 167.604 29.744C167.604 30.352 167.844 30.808 168.324 31.112C168.804 31.4 169.38 31.624 170.052 31.784C170.74 31.944 171.396 32.12 172.02 32.312C173.428 32.776 174.748 33.344 175.98 34.016C177.228 34.688 178.228 35.512 178.98 36.488C179.732 37.464 180.092 38.632 180.06 39.992C180.06 41.544 179.596 42.904 178.668 44.072C177.74 45.224 176.54 46.104 175.068 46.712C173.612 47.32 172.052 47.56 170.388 47.432ZM202.405 23H208.261V47H202.381L202.141 44.024C201.469 45.096 200.589 45.968 199.501 46.64C198.429 47.296 197.165 47.624 195.709 47.624C193.933 47.624 192.269 47.288 190.717 46.616C189.165 45.944 187.797 45.016 186.613 43.832C185.429 42.648 184.509 41.28 183.853 39.728C183.197 38.176 182.869 36.512 182.869 34.736C182.869 33.024 183.181 31.416 183.805 29.912C184.429 28.408 185.309 27.088 186.445 25.952C187.581 24.816 188.893 23.928 190.381 23.288C191.869 22.648 193.469 22.328 195.181 22.328C196.781 22.328 198.205 22.68 199.453 23.384C200.717 24.088 201.789 24.984 202.669 26.072L202.405 23ZM195.877 41.984C197.157 41.984 198.269 41.656 199.213 41C200.157 40.344 200.869 39.472 201.349 38.384C201.845 37.28 202.045 36.064 201.949 34.736C201.837 33.488 201.469 32.36 200.845 31.352C200.221 30.328 199.421 29.512 198.445 28.904C197.469 28.296 196.373 27.992 195.157 27.992C193.893 27.992 192.757 28.32 191.749 28.976C190.757 29.632 189.989 30.512 189.445 31.616C188.901 32.704 188.685 33.92 188.797 35.264C188.925 36.496 189.325 37.624 189.997 38.648C190.669 39.656 191.517 40.464 192.541 41.072C193.581 41.68 194.693 41.984 195.877 41.984Z" fill="#212121"/>
<defs>
<linearGradient id="paint0_linear_1228_19914" x1="60" y1="60" x2="-11.3946" y2="39.2998" gradientUnits="userSpaceOnUse">
<stop stop-color="#246BFD"/>
<stop offset="1" stop-color="#5089FF"/>
</linearGradient>
</defs>
</svg>
