<svg width="96" height="102" viewBox="0 0 96 102" fill="none" xmlns="http://www.w3.org/2000/svg">
<path fill-rule="evenodd" clip-rule="evenodd" d="M78.5372 101.053H17.4628C7.81835 101.053 0 93.291 0 83.7167V39.7483C0.0886853 35.978 1.88332 32.4478 4.88596 30.1373L37.8209 3.77421C43.5088 -1.11915 51.909 -1.27043 57.7719 3.41492L91.476 30.1373C94.3431 32.5179 95.9999 36.0377 96 39.7483V83.7616C96 88.3553 94.1587 92.7601 90.8825 96.0041C87.6063 99.248 83.1645 101.065 78.5372 101.053ZM48.7366 62.8255L48.5767 62.8233L48.4077 62.8255C46.9336 62.825 45.5175 62.2509 44.4593 61.2246C43.401 60.1984 42.7837 58.8006 42.738 57.3272V57.3179C42.7861 55.8461 43.4044 54.4506 44.4624 53.4264C45.5204 52.4021 46.9352 51.8292 48.4077 51.8288L48.5677 51.831L48.7366 51.8288C50.2108 51.8293 51.6268 52.4034 52.6851 53.4297C53.7433 54.4559 54.3606 55.8537 54.4064 57.3272V57.3364C54.3583 58.8082 53.7399 60.2037 52.6819 61.228C51.6239 62.2522 50.2092 62.8251 48.7366 62.8255ZM38.4504 47.4377C41.1831 44.8683 44.8228 43.4865 48.5722 43.5951L48.5774 43.5969C52.3272 43.4892 55.9672 44.8717 58.7002 47.4421C61.4378 50.0169 63.0415 53.5731 63.1588 57.3295C63.1532 59.1089 62.7893 60.8712 62.089 62.507C61.3887 64.1428 60.3662 65.6209 59.0825 66.8532L59.0617 66.8185C58.2767 65.6315 57.23 64.6403 56.0022 63.921C56.8785 63.061 57.5775 62.0331 58.0542 60.9015C58.5309 59.77 58.7781 58.555 58.7815 57.3272V57.3109C58.6973 54.735 57.6148 52.2927 55.7628 50.5004C53.9108 48.708 51.4344 47.706 48.8571 47.7062L48.5743 47.7107L48.278 47.7062C45.6981 47.7079 43.2201 48.713 41.3679 50.509C39.5158 52.3049 38.4348 54.7509 38.3536 57.3295C38.3571 58.5544 38.6035 59.7688 39.0786 60.8979C39.5536 62.027 40.248 63.0506 41.1213 63.9095L41.0797 63.9326C39.8619 64.6555 38.8256 65.6473 38.0502 66.8323L38.0456 66.8277C36.7677 65.5966 35.7504 64.1212 35.0541 62.4891C34.3578 60.857 33.9968 59.1016 33.9925 57.3272V57.304C34.1147 53.555 35.7177 50.0072 38.4504 47.4377ZM48.5743 47.7107L48.5675 47.7108H48.5814L48.5743 47.7107ZM25.2632 57.3272C25.2632 45.2025 35.6971 35.3707 48.5722 35.3731L48.5699 35.3684C61.4426 35.3684 71.8789 45.1979 71.8789 57.3248V57.3364C71.7909 65.3416 67.3666 72.3071 60.7378 76.0528C60.8813 75.0439 60.9543 74.0262 60.9562 73.007V72.9954C60.94 72.2983 60.8613 71.6197 60.7339 71.0314L60.7733 71.0013C62.8641 69.3841 64.5594 67.3122 65.7307 64.9427C66.902 62.5731 67.5187 59.9681 67.5339 57.3248C67.5339 47.4607 59.0432 39.4632 48.5699 39.4632C38.0965 39.4632 29.6058 47.4607 29.6058 57.3248V57.3318C29.623 59.9764 30.2419 62.5824 31.4157 64.9524C32.5889 67.3213 34.2857 69.3923 36.3776 71.0085C36.2476 71.6537 36.1738 72.3186 36.1626 73.0093C36.1625 74.0223 36.2352 75.0363 36.3803 76.0388L36.2738 75.9832C32.9649 74.1108 30.206 71.4019 28.2736 68.1276C26.3412 64.8534 25.303 61.1289 25.2632 57.3272ZM36.3776 71.0085C36.3785 71.0092 36.3767 71.0078 36.3776 71.0085L36.3919 70.9388C36.3871 70.962 36.3823 70.9852 36.3776 71.0085ZM60.7378 76.0528C60.7365 76.0535 60.7391 76.052 60.7378 76.0528L60.72 76.1754C60.7261 76.1345 60.732 76.0937 60.7378 76.0528ZM48.3452 65.5701L48.5722 65.5724L48.5675 65.5701H48.556C50.6236 65.5077 52.6314 66.2686 54.1383 67.6856C55.6452 69.1027 56.528 71.0599 56.5928 73.1274C56.5928 77.2918 52.9959 90.9474 48.5699 90.9474C44.1438 90.9474 40.547 77.301 40.547 73.1274V73.1159C40.6143 71.0923 41.4652 69.1741 42.9203 67.7661C44.3753 66.3582 46.3205 65.5708 48.3452 65.5701Z" fill="url(#paint0_linear_1459_11189)"/>
<defs>
<linearGradient id="paint0_linear_1459_11189" x1="96" y1="101.053" x2="-19.1016" y2="69.3486" gradientUnits="userSpaceOnUse">
<stop stop-color="#246BFD"/>
<stop offset="1" stop-color="#5089FF"/>
</linearGradient>
</defs>
</svg>
