<svg width="330" height="251" viewBox="0 0 330 251" fill="none" xmlns="http://www.w3.org/2000/svg">
<g clip-path="url(#clip0_1329_23253)">
<path d="M132.15 52.5109H130.949V19.6726C130.949 17.1767 130.457 14.7052 129.501 12.3993C128.544 10.0934 127.143 7.99821 125.376 6.23334C123.609 4.46848 121.511 3.06851 119.202 2.11337C116.893 1.15823 114.419 0.666628 111.92 0.666626H42.2602C37.2132 0.666616 32.3729 2.66901 28.8042 6.2333C25.2354 9.7976 23.2305 14.6318 23.2305 19.6725V199.826C23.2305 202.322 23.7227 204.793 24.679 207.099C25.6353 209.405 27.0371 211.5 28.8041 213.265C30.5712 215.03 32.669 216.43 34.9778 217.385C37.2866 218.34 39.7611 218.832 42.2601 218.832H111.92C116.967 218.832 121.807 216.83 125.376 213.265C128.944 209.701 130.949 204.867 130.949 199.826V75.8857H132.15V52.5109Z" fill="#3F3D56"/>
<path d="M154.477 218.863H0.90308C0.796176 218.863 0.693651 218.821 0.618059 218.745C0.542467 218.67 0.5 218.567 0.5 218.461C0.5 218.354 0.542467 218.251 0.618059 218.176C0.693651 218.1 0.796176 218.058 0.90308 218.058H154.477C154.583 218.058 154.686 218.1 154.762 218.176C154.837 218.251 154.88 218.354 154.88 218.461C154.88 218.567 154.837 218.67 154.762 218.745C154.686 218.821 154.583 218.863 154.477 218.863Z" fill="#CBCBCB"/>
<path d="M280.336 222.204C280.75 221.536 281.238 220.915 281.79 220.355C282.017 220.119 282.257 219.897 282.505 219.681C284.01 218.343 285.844 217.429 287.82 217.034C289.796 216.639 291.841 216.777 293.746 217.433C295.65 218.09 297.346 219.241 298.657 220.768C299.969 222.296 300.849 224.145 301.208 226.125C302.871 219.985 298.543 213.936 294.192 209.291C289.839 204.647 284.864 199.552 284.889 193.188C284.901 189.647 286.635 186.488 289.254 184.146C289.335 184.075 289.415 184.005 289.498 183.936C292.663 181.227 296.735 179.809 300.9 179.967C308.639 180.381 315.396 185.576 320.089 191.738C327.642 201.652 330.952 215.569 325.664 226.855C321.013 236.781 311.093 242.676 300.969 247.414C299.555 248.076 298.145 248.718 296.736 249.34C296.727 249.342 296.717 249.349 296.708 249.351C296.64 249.381 296.572 249.411 296.509 249.442C296.218 249.57 295.927 249.698 295.639 249.824L295.773 249.911L296.189 250.18C296.045 250.093 295.902 250.008 295.758 249.921C295.715 249.895 295.669 249.87 295.626 249.843C290.654 246.864 285.613 243.711 282.177 239.059C278.615 234.229 277.182 227.311 280.336 222.204Z" fill="#F1F1F1"/>
<path d="M313.511 210.987C314.612 213.489 315.342 216.137 315.678 218.849C315.942 221.268 315.843 223.712 315.383 226.101C314.396 231.01 312.243 235.611 309.104 239.516C306.737 242.48 304.003 245.134 300.969 247.414C299.556 248.076 298.145 248.718 296.737 249.34C296.728 249.342 296.718 249.349 296.708 249.351C296.64 249.381 296.573 249.411 296.509 249.442C296.218 249.57 295.928 249.698 295.64 249.824L295.773 249.911L296.189 250.18C296.045 250.093 295.902 250.008 295.758 249.921C295.715 249.895 295.67 249.87 295.627 249.843C296.721 246.021 296.882 241.991 296.096 238.094C295.31 234.196 293.6 230.543 291.109 227.441C288.605 224.379 285.412 221.95 281.79 220.355C282.018 220.119 282.258 219.897 282.505 219.681C283.9 220.321 285.236 221.082 286.497 221.957C291.006 225.07 294.393 229.55 296.154 234.735C297.727 239.438 297.923 244.492 296.72 249.304C296.97 249.141 297.22 248.973 297.464 248.807C302.096 245.687 306.365 241.94 309.581 237.345C312.355 233.462 314.129 228.957 314.749 224.227C315.365 219.061 314.071 213.98 311.762 209.37C309.211 204.438 305.998 199.878 302.21 195.815C298.406 191.641 294.104 187.947 289.402 184.816C289.296 184.745 289.221 184.635 289.194 184.511C289.167 184.386 289.188 184.256 289.254 184.146C289.305 184.047 289.392 183.971 289.498 183.936C289.552 183.923 289.608 183.921 289.663 183.932C289.717 183.943 289.768 183.966 289.812 184C290.393 184.387 290.969 184.777 291.537 185.179C296.273 188.528 300.574 192.452 304.341 196.86C307.981 201.109 311.294 205.83 313.511 210.987Z" fill="white"/>
<path d="M175.523 250.667H329.097C329.204 250.667 329.306 250.624 329.382 250.549C329.457 250.473 329.5 250.371 329.5 250.264C329.5 250.157 329.457 250.055 329.382 249.979C329.306 249.904 329.204 249.861 329.097 249.861H175.523C175.416 249.861 175.314 249.904 175.238 249.979C175.163 250.055 175.12 250.157 175.12 250.264C175.12 250.371 175.163 250.473 175.238 250.549C175.314 250.624 175.416 250.667 175.523 250.667Z" fill="#CBCBCB"/>
<path d="M212.459 218.545L205.013 218.429L205.908 243.777H212.458L212.459 218.545Z" fill="#FFB7B7"/>
<path d="M214.129 241.642L201.23 241.641H201.229C199.049 241.641 196.958 242.506 195.417 244.046C193.875 245.585 193.009 247.674 193.009 249.851V250.118L214.128 250.119L214.129 241.642Z" fill="#2F2E41"/>
<path d="M261.762 211.822L253.628 217.038L269.899 236.589L275.411 233.055L261.762 211.822Z" fill="#FFB7B7"/>
<path d="M275.661 230.356L264.807 237.316L264.806 237.317C262.972 238.493 261.68 240.349 261.216 242.477C260.752 244.604 261.152 246.829 262.33 248.661L262.475 248.885L280.247 237.49L275.661 230.356Z" fill="#2F2E41"/>
<path d="M196.146 151.119C194.753 151.505 193.266 151.368 191.968 150.733C190.669 150.098 189.649 149.009 189.101 147.673C188.552 146.337 188.513 144.846 188.992 143.483C189.47 142.121 190.433 140.981 191.696 140.279L204.232 126.075L214.835 128.363L199.922 142.951C200.289 143.727 200.481 144.573 200.484 145.431C200.488 146.289 200.303 147.137 199.943 147.916C199.583 148.694 199.057 149.385 198.401 149.938C197.745 150.491 196.975 150.894 196.146 151.119H196.146Z" fill="#FFB7B7"/>
<path d="M173.035 125.147C175.469 125.147 177.443 123.177 177.443 120.746C177.443 118.315 175.469 116.344 173.035 116.344C170.601 116.344 168.628 118.315 168.628 120.746C168.628 123.177 170.601 125.147 173.035 125.147Z" fill="#F1F1F1"/>
<path d="M302.021 113.07C304.455 113.07 306.428 111.099 306.428 108.668C306.428 106.237 304.455 104.267 302.021 104.267C299.587 104.267 297.613 106.237 297.613 108.668C297.613 111.099 299.587 113.07 302.021 113.07Z" fill="#F1F1F1"/>
<path d="M112.688 5.61133H103.595C104.013 6.63523 104.172 7.74614 104.059 8.84617C103.946 9.9462 103.564 11.0016 102.947 11.9194C102.329 12.8372 101.495 13.5892 100.518 14.1092C99.5409 14.6292 98.4507 14.9013 97.3435 14.9013H57.4365C56.3293 14.9013 55.2392 14.6292 54.262 14.1092C53.2849 13.5892 52.4508 12.8372 51.8332 11.9194C51.2157 11.0016 50.8335 9.94621 50.7206 8.84617C50.6076 7.74614 50.7672 6.63523 51.1854 5.61133H42.6926C40.8264 5.61133 38.9784 5.97845 37.2542 6.69174C35.5301 7.40502 33.9634 8.4505 32.6438 9.76848C31.3242 11.0865 30.2774 12.6511 29.5632 14.3731C28.849 16.0952 28.4814 17.9408 28.4814 19.8047V199.694C28.4814 201.558 28.849 203.403 29.5632 205.126C30.2774 206.848 31.3242 208.412 32.6438 209.73C33.9634 211.048 35.5301 212.094 37.2542 212.807C38.9784 213.52 40.8264 213.887 42.6926 213.887H112.688C114.554 213.887 116.402 213.52 118.126 212.807C119.85 212.094 121.417 211.048 122.736 209.73C124.056 208.412 125.103 206.848 125.817 205.126C126.531 203.404 126.899 201.558 126.899 199.694V19.8047C126.899 17.9408 126.531 16.0952 125.817 14.3731C125.103 12.6511 124.056 11.0865 122.736 9.76848C121.417 8.4505 119.85 7.40502 118.126 6.69174C116.402 5.97845 114.554 5.61133 112.688 5.61133Z" fill="white"/>
<path d="M77.6899 139.829C96.4889 139.829 111.729 124.609 111.729 105.833C111.729 87.0576 96.4889 71.837 77.6899 71.837C58.891 71.837 43.6514 87.0576 43.6514 105.833C43.6514 124.609 58.891 139.829 77.6899 139.829Z" fill="#246BFD"/>
<path d="M74.3171 118.802C73.5513 118.803 72.8059 118.556 72.1932 118.097L72.1552 118.068L64.1557 111.957C63.7852 111.673 63.4743 111.319 63.2407 110.915C63.0071 110.512 62.8554 110.066 62.7943 109.604C62.7332 109.142 62.7638 108.672 62.8844 108.221C63.005 107.771 63.2133 107.349 63.4974 106.979C63.7814 106.609 64.1356 106.298 64.5398 106.065C64.944 105.831 65.3903 105.68 65.8531 105.619C66.3159 105.558 66.7862 105.588 67.2372 105.709C67.6882 105.829 68.111 106.037 68.4815 106.321L73.6629 110.289L85.907 94.3358C86.1909 93.9659 86.545 93.6555 86.949 93.4223C87.353 93.1891 87.7991 93.0376 88.2617 92.9766C88.7243 92.9156 89.1945 92.9462 89.6453 93.0666C90.0961 93.187 90.5187 93.395 90.889 93.6785L90.8901 93.6793L90.8141 93.7847L90.8921 93.6793C91.6393 94.2528 92.1281 95.0989 92.2513 96.032C92.3745 96.965 92.1221 97.9088 91.5494 98.6561L77.1478 117.413C76.8146 117.845 76.3862 118.195 75.8958 118.435C75.4055 118.675 74.8663 118.799 74.3202 118.797L74.3171 118.802Z" fill="white"/>
<path d="M237.389 100.266L206.144 139.437L196.62 135.07L233.345 77.9662L237.389 100.266Z" fill="#3F3D56"/>
<path d="M312.149 39.5697C312.351 38.1397 312.02 36.6856 311.22 35.4829C310.42 34.2801 309.206 33.4122 307.808 33.0437C306.41 32.6752 304.925 32.8316 303.635 33.4834C302.345 34.1352 301.339 35.237 300.808 36.58L288.346 50.8491L292.002 61.0491L304.535 44.3763C305.353 44.6379 306.218 44.7173 307.07 44.6088C307.922 44.5003 308.74 44.2066 309.466 43.7483C310.192 43.29 310.808 42.6784 311.272 41.9564C311.735 41.2344 312.035 40.4197 312.149 39.5697Z" fill="#FFB7B7"/>
<path d="M260.491 95.0905L301.859 50.9967L296.279 42.1368L244.394 85.9629L260.491 95.0905Z" fill="#3F3D56"/>
<path d="M251.259 68.2995C259.273 68.2995 265.77 61.8108 265.77 53.8067C265.77 45.8026 259.273 39.314 251.259 39.314C243.245 39.314 236.748 45.8026 236.748 53.8067C236.748 61.8108 243.245 68.2995 251.259 68.2995Z" fill="#2F2E41"/>
<path d="M252.426 45.6197C255.548 42.4572 259.327 40.0168 263.496 38.4702C266.172 37.4801 269.084 36.8684 271.882 37.4307C274.679 37.993 277.325 39.9259 278.105 42.6673C278.744 44.909 278.085 47.3226 277.094 49.4328C276.104 51.543 274.781 53.4998 273.981 55.6888C273.163 57.9223 272.918 60.3243 273.266 62.6767C273.614 65.0292 274.544 67.2575 275.973 69.1596C277.402 71.0616 279.284 72.5771 281.449 73.5684C283.613 74.5598 285.991 74.9956 288.366 74.8363C285.617 75.2044 283.084 76.4945 280.397 77.1812C277.71 77.8679 274.539 77.8213 272.542 75.8989C270.43 73.8649 270.388 70.5579 270.49 67.629C270.642 63.2751 270.793 58.9213 270.945 54.5674C271.023 52.347 271.089 50.0555 270.287 47.9831C269.485 45.9106 267.58 44.0959 265.355 44.1148C263.67 44.1291 262.177 45.1491 260.825 46.155C259.473 47.161 258.042 48.2342 256.363 48.3839C254.684 48.5335 252.766 47.2923 252.892 45.6131L252.426 45.6197Z" fill="#2F2E41"/>
<path d="M264.66 134.419C264.66 134.419 246.586 74.464 240.778 73.6538C234.969 72.8436 225.611 89.0375 225.611 89.0375C213.477 104.5 200.965 154.585 200.965 154.585C200.965 154.585 221.823 155.889 237.07 163.991C252.317 172.093 270.311 163.581 270.311 163.581L264.66 134.419Z" fill="#3F3D56"/>
<path opacity="0.1" d="M264.66 134.419C264.66 134.419 246.586 74.464 240.778 73.6538C234.969 72.8436 227.988 89.2018 227.988 89.2018C221.942 114.162 200.965 154.585 200.965 154.585C200.965 154.585 221.823 155.889 237.07 163.991C252.317 172.093 270.311 163.581 270.311 163.581L264.66 134.419Z" fill="black"/>
<path d="M249.832 116.481V146.607L253.382 190.248L271.117 223.26L262.653 229.298L238.468 197.897L228.902 166.718L213.88 235.739L202.594 234.934L210.432 139.237L225.306 112.301L249.832 116.481Z" fill="#2F2E41"/>
<path d="M231.609 87.3412C225.966 92.9772 231.206 99.0159 231.206 99.0159L224.757 113.509L250.151 120.352L259.025 80.7477L252.979 74.3064C240.887 73.9039 240.88 73.6536 240.88 73.6536C238.761 75.7243 231.609 87.3412 231.609 87.3412Z" fill="#246BFD"/>
<path d="M260.048 76.6447C258.895 75.7944 257.584 75.1812 256.191 74.8404C254.799 74.4997 253.353 74.4382 251.937 74.6596C250.52 74.881 249.162 75.3809 247.941 76.1303C246.719 76.8796 245.659 77.8636 244.821 79.0252C238.437 87.9029 232.534 102.238 240.667 120.117C253.726 148.824 265.091 163.52 269.711 163.519C269.913 163.521 270.113 163.489 270.305 163.426C273.149 162.462 277.26 157.656 278.005 153.421C278.271 151.905 278.208 149.793 276.392 148.343C271.178 144.178 261.818 131.209 258.898 114.139C257.284 104.707 260.414 96.1146 263.323 90.568C264.552 88.273 264.911 85.6125 264.336 83.0742C263.76 80.5359 262.287 78.2899 260.188 76.7479L260.048 76.6447Z" fill="#3F3D56"/>
<path d="M252.006 66.8758C257.182 64.0496 259.084 57.5676 256.255 52.3976C253.425 47.2277 246.935 45.3277 241.758 48.1538C236.582 50.98 234.68 57.4621 237.509 62.632C240.339 67.8019 246.829 69.7019 252.006 66.8758Z" fill="#FFB7B7"/>
<path d="M231.859 56.7082H247.283L247.442 54.4965L248.232 56.7082H250.607L250.921 52.3247L252.488 56.7082H257.084V56.491C257.08 53.4393 255.865 50.5135 253.704 48.3556C251.544 46.1977 248.614 44.9839 245.559 44.9805H243.384C240.329 44.9839 237.399 46.1977 235.239 48.3556C233.078 50.5135 231.863 53.4393 231.859 56.491V56.7082Z" fill="#2F2E41"/>
<path d="M254.754 64.6579L261.336 62.5247V46.5603H248.903L249.211 46.8672C253.494 51.1389 258.257 66.2944 254.754 64.6579Z" fill="#2F2E41"/>
<path d="M212.134 16.4519C216.127 16.4519 219.363 13.2194 219.363 9.23204C219.363 5.24464 216.127 2.01221 212.134 2.01221C208.142 2.01221 204.905 5.24464 204.905 9.23204C204.905 13.2194 208.142 16.4519 212.134 16.4519Z" fill="#F1F1F1"/>
</g>
<defs>
<clipPath id="clip0_1329_23253">
<rect width="329" height="250" fill="white" transform="translate(0.5 0.666626)"/>
</clipPath>
</defs>
</svg>
