<svg width="120" height="120" viewBox="0 0 120 120" fill="none" xmlns="http://www.w3.org/2000/svg">
<path fill-rule="evenodd" clip-rule="evenodd" d="M90.5372 111.053H29.4628C19.8183 111.053 12 103.291 12 93.7167V49.7483C12.0887 45.978 13.8833 42.4478 16.886 40.1373L49.8209 13.7742C55.5088 8.88085 63.909 8.72957 69.7719 13.4149L103.476 40.1373C106.343 42.5179 108 46.0377 108 49.7483V93.7616C108 98.3553 106.159 102.76 102.883 106.004C99.6063 109.248 95.1645 111.065 90.5372 111.053ZM60.7366 72.8255L60.5767 72.8233L60.4077 72.8255C58.9336 72.825 57.5175 72.2509 56.4593 71.2246C55.401 70.1984 54.7837 68.8006 54.738 67.3272V67.3179C54.7861 65.8461 55.4044 64.4506 56.4624 63.4264C57.5204 62.4021 58.9352 61.8292 60.4077 61.8288L60.5677 61.831L60.7366 61.8288C62.2108 61.8293 63.6268 62.4034 64.6851 63.4297C65.7433 64.4559 66.3606 65.8537 66.4064 67.3272V67.3364C66.3583 68.8082 65.7399 70.2037 64.6819 71.228C63.6239 72.2522 62.2092 72.8251 60.7366 72.8255ZM50.4504 57.4377C53.1831 54.8683 56.8228 53.4865 60.5722 53.5951L60.5774 53.5969C64.3272 53.4892 67.9672 54.8717 70.7002 57.4421C73.4378 60.0169 75.0415 63.5731 75.1588 67.3295C75.1532 69.1089 74.7893 70.8712 74.089 72.507C73.3887 74.1428 72.3662 75.6209 71.0825 76.8532L71.0617 76.8185C70.2767 75.6315 69.23 74.6403 68.0022 73.921C68.8785 73.061 69.5775 72.0331 70.0542 70.9015C70.5309 69.77 70.7781 68.555 70.7815 67.3272V67.3109C70.6973 64.735 69.6148 62.2927 67.7628 60.5004C65.9108 58.708 63.4344 57.706 60.8571 57.7062L60.5743 57.7107L60.278 57.7062C57.6981 57.7079 55.2201 58.713 53.3679 60.509C51.5158 62.3049 50.4348 64.7509 50.3536 67.3295C50.3571 68.5544 50.6035 69.7688 51.0786 70.8979C51.5536 72.027 52.248 73.0506 53.1213 73.9095L53.0797 73.9326C51.8619 74.6555 50.8256 75.6473 50.0502 76.8323L50.0456 76.8277C48.7677 75.5966 47.7504 74.1212 47.0541 72.4891C46.3578 70.857 45.9968 69.1016 45.9925 67.3272V67.304C46.1147 63.555 47.7177 60.0072 50.4504 57.4377ZM60.5743 57.7107L60.5675 57.7108H60.5814L60.5743 57.7107ZM37.2632 67.3272C37.2632 55.2025 47.6971 45.3707 60.5722 45.3731L60.5699 45.3684C73.4426 45.3684 83.8789 55.1979 83.8789 67.3248V67.3364C83.7909 75.3416 79.3666 82.3071 72.7378 86.0528C72.8813 85.0439 72.9543 84.0262 72.9562 83.007V82.9954C72.94 82.2983 72.8613 81.6197 72.7339 81.0314L72.7733 81.0013C74.8641 79.3841 76.5594 77.3122 77.7307 74.9427C78.902 72.5731 79.5187 69.9681 79.5339 67.3248C79.5339 57.4607 71.0432 49.4632 60.5699 49.4632C50.0965 49.4632 41.6058 57.4607 41.6058 67.3248V67.3318C41.623 69.9764 42.2419 72.5824 43.4157 74.9524C44.5889 77.3213 46.2857 79.3923 48.3776 81.0085C48.2476 81.6537 48.1738 82.3186 48.1626 83.0093C48.1625 84.0223 48.2352 85.0363 48.3803 86.0388L48.2738 85.9832C44.9649 84.1108 42.206 81.4019 40.2736 78.1276C38.3412 74.8534 37.303 71.1289 37.2632 67.3272ZM48.3776 81.0085C48.3785 81.0092 48.3767 81.0078 48.3776 81.0085L48.3919 80.9388C48.3871 80.962 48.3823 80.9852 48.3776 81.0085ZM72.7378 86.0528C72.7365 86.0535 72.7391 86.052 72.7378 86.0528L72.72 86.1754C72.7261 86.1345 72.732 86.0937 72.7378 86.0528ZM60.3452 75.5701L60.5722 75.5724L60.5675 75.5701H60.556C62.6236 75.5077 64.6314 76.2686 66.1383 77.6856C67.6452 79.1027 68.528 81.0599 68.5928 83.1274C68.5928 87.2918 64.9959 100.947 60.5699 100.947C56.1438 100.947 52.547 87.301 52.547 83.1274V83.1159C52.6143 81.0923 53.4652 79.1741 54.9203 77.7661C56.3753 76.3582 58.3205 75.5708 60.3452 75.5701Z" fill="url(#paint0_linear_1328_20204)"/>
<defs>
<linearGradient id="paint0_linear_1328_20204" x1="108" y1="111.053" x2="-7.10164" y2="79.3486" gradientUnits="userSpaceOnUse">
<stop stop-color="#246BFD"/>
<stop offset="1" stop-color="#5089FF"/>
</linearGradient>
</defs>
</svg>
