<svg width="80" height="80" viewBox="0 0 80 80" fill="none" xmlns="http://www.w3.org/2000/svg">
<rect width="80" height="80" rx="40" fill="#246BFD" fill-opacity="0.08"/>
<path fill-rule="evenodd" clip-rule="evenodd" d="M46.5857 28C48.3737 28 50.0937 28.7067 51.359 29.9747C52.6257 31.24 53.3337 32.9467 53.3337 34.7333V45.2667C53.3337 48.9867 50.307 52 46.5857 52H33.4137C29.6923 52 26.667 48.9867 26.667 45.2667V34.7333C26.667 31.0133 29.679 28 33.4137 28H46.5857ZM48.707 36.72L48.8137 36.6133C49.1323 36.2267 49.1323 35.6667 48.799 35.28C48.6137 35.0813 48.359 34.96 48.0937 34.9333C47.8137 34.9187 47.547 35.0133 47.3457 35.2L41.3337 40C40.5603 40.6413 39.4523 40.6413 38.667 40L32.667 35.2C32.2523 34.8933 31.679 34.9333 31.3337 35.2933C30.9737 35.6533 30.9337 36.2267 31.239 36.6267L31.4137 36.8L37.4803 41.5333C38.227 42.12 39.1323 42.44 40.0803 42.44C41.0257 42.44 41.947 42.12 42.6923 41.5333L48.707 36.72Z" fill="url(#paint0_linear_1329_23387)"/>
<defs>
<linearGradient id="paint0_linear_1329_23387" x1="53.3337" y1="52" x2="22.1696" y2="41.9603" gradientUnits="userSpaceOnUse">
<stop stop-color="#246BFD"/>
<stop offset="1" stop-color="#5089FF"/>
</linearGradient>
</defs>
</svg>
