<svg width="80" height="80" viewBox="0 0 80 80" fill="none" xmlns="http://www.w3.org/2000/svg">
<rect width="80" height="80" rx="40" fill="#246BFD" fill-opacity="0.08"/>
<path fill-rule="evenodd" clip-rule="evenodd" d="M26.667 40.02C26.667 32.9961 32.2803 26.6666 40.027 26.6666C47.6003 26.6666 53.3337 32.8759 53.3337 39.9799C53.3337 48.219 46.6137 53.3333 40.0003 53.3333C37.8137 53.3333 35.387 52.7457 33.4403 51.5974C32.7603 51.1834 32.187 50.8763 31.4537 51.1166L28.7603 51.9178C28.0803 52.1315 27.467 51.5974 27.667 50.8763L28.5603 47.8851C28.707 47.4712 28.6803 47.0305 28.467 46.6833C27.3203 44.5735 26.667 42.2634 26.667 40.02ZM38.267 40.02C38.267 40.9681 39.027 41.7292 39.9737 41.7426C40.9203 41.7426 41.6803 40.9681 41.6803 40.0333C41.6803 39.0853 40.9203 38.3241 39.9737 38.3241C39.0403 38.3108 38.267 39.0853 38.267 40.02ZM44.4137 40.0333C44.4137 40.9681 45.1737 41.7426 46.1203 41.7426C47.067 41.7426 47.827 40.9681 47.827 40.0333C47.827 39.0853 47.067 38.3241 46.1203 38.3241C45.1737 38.3241 44.4137 39.0853 44.4137 40.0333ZM33.827 41.7426C32.8937 41.7426 32.1203 40.9681 32.1203 40.0333C32.1203 39.0853 32.8803 38.3241 33.827 38.3241C34.7737 38.3241 35.5337 39.0853 35.5337 40.0333C35.5337 40.9681 34.7737 41.7292 33.827 41.7426Z" fill="url(#paint0_linear_1329_23381)"/>
<defs>
<linearGradient id="paint0_linear_1329_23381" x1="53.3337" y1="53.3333" x2="21.6027" y2="44.1332" gradientUnits="userSpaceOnUse">
<stop stop-color="#246BFD"/>
<stop offset="1" stop-color="#5089FF"/>
</linearGradient>
</defs>
</svg>
